# xmcd CD database file
#
# Track frame offsets:
#	150
#	17147
#	32160
#	45852
#	64295
#	80845
#	96040
#	118085
#	135085
#	154170
#	164765
#	182592
#	194959
#	212977
#
# Disc length: 3167 seconds
#
# Revision: 0
# Processed by: cddbd v1.5.2PL0 Copyright (c) Steve Scherf et al.
# Submitted via: CDex 1.70beta2
#
DISCID=c70c5d0e
DTITLE=Coletâneas - Bossa 100% - Sax Instrumental
DYEAR=1900
DGENRE=Jazz
TTITLE0=Garota de Ipanema
TTITLE1=Samba de Verão
TTITLE2=O Barquinho
TTITLE3=Wave
TTITLE4=Desafinado
TTITLE5=Triste
TTITLE6=Água de Beber
TTITLE7=Corcovado
TTITLE8=Insensatez
TTITLE9=Samba de uma nota só
TTITLE10=Manhã de Caranaval
TTITLE11=Blue Bossa
TTITLE12=Summertime
TTITLE13=Simplesmente Nú
EXTD=
EXTT0=
EXTT1=
EXTT2=
EXTT3=
EXTT4=
EXTT5=
EXTT6=
EXTT7=
EXTT8=
EXTT9=
EXTT10=
EXTT11=
EXTT12=
EXTT13=
PLAYORDER=
